<mxfile host="app.diagrams.net" agent="Mozilla/5.0 (Macintosh; Intel Mac OS X 10_15_7) AppleWebKit/605.1.15 (KHTML, like Gecko) Version/16.4 Safari/605.1.15" version="26.0.6">
  <diagram name="Page-1" id="D9MDhD-JVaS0pL1oCc8_">
    <mxGraphModel dx="954" dy="647" grid="1" gridSize="10" guides="1" tooltips="1" connect="1" arrows="1" fold="1" page="1" pageScale="1" pageWidth="827" pageHeight="1169" math="0" shadow="0">
      <root>
        <mxCell id="0" />
        <mxCell id="1" parent="0" />
        <mxCell id="qpEPyUIO_lfUjYMVJA4N-15" value="" style="rounded=0;whiteSpace=wrap;html=1;" vertex="1" parent="1">
          <mxGeometry x="370" y="305" width="150" height="115" as="geometry" />
        </mxCell>
        <mxCell id="qpEPyUIO_lfUjYMVJA4N-14" value="" style="rounded=0;whiteSpace=wrap;html=1;" vertex="1" parent="1">
          <mxGeometry x="370" y="310" width="150" height="120" as="geometry" />
        </mxCell>
        <mxCell id="qpEPyUIO_lfUjYMVJA4N-1" value="" style="rounded=0;whiteSpace=wrap;html=1;" vertex="1" parent="1">
          <mxGeometry x="330" y="250" width="440" height="220" as="geometry" />
        </mxCell>
        <mxCell id="qpEPyUIO_lfUjYMVJA4N-2" value="&lt;h1 style=&quot;margin-top: 0px;&quot;&gt;Home network&lt;/h1&gt;" style="text;html=1;whiteSpace=wrap;overflow=hidden;rounded=0;" vertex="1" parent="1">
          <mxGeometry x="460" y="260" width="180" height="50" as="geometry" />
        </mxCell>
        <mxCell id="qpEPyUIO_lfUjYMVJA4N-3" value="P2PRC n1&amp;nbsp;" style="rounded=0;whiteSpace=wrap;html=1;fillColor=#d5e8d4;strokeColor=#82b366;" vertex="1" parent="1">
          <mxGeometry x="380" y="320" width="120" height="30" as="geometry" />
        </mxCell>
        <mxCell id="qpEPyUIO_lfUjYMVJA4N-4" value="P2PRC n2&amp;nbsp;" style="rounded=0;whiteSpace=wrap;html=1;" vertex="1" parent="1">
          <mxGeometry x="380" y="380" width="120" height="30" as="geometry" />
        </mxCell>
        <mxCell id="qpEPyUIO_lfUjYMVJA4N-6" style="edgeStyle=orthogonalEdgeStyle;rounded=0;orthogonalLoop=1;jettySize=auto;html=1;entryX=1;entryY=0.25;entryDx=0;entryDy=0;fillColor=#d5e8d4;strokeColor=#82b366;strokeWidth=3;" edge="1" parent="1" target="qpEPyUIO_lfUjYMVJA4N-3">
          <mxGeometry relative="1" as="geometry">
            <mxPoint x="585" y="365" as="sourcePoint" />
            <mxPoint x="515" y="335" as="targetPoint" />
          </mxGeometry>
        </mxCell>
        <mxCell id="qpEPyUIO_lfUjYMVJA4N-5" value="Morello board" style="rounded=0;whiteSpace=wrap;html=1;fillColor=#d5e8d4;strokeColor=#82b366;" vertex="1" parent="1">
          <mxGeometry x="570" y="350" width="120" height="30" as="geometry" />
        </mxCell>
        <mxCell id="qpEPyUIO_lfUjYMVJA4N-7" value="" style="endArrow=classic;html=1;rounded=0;entryX=1;entryY=0.25;entryDx=0;entryDy=0;exitX=0;exitY=0.5;exitDx=0;exitDy=0;" edge="1" parent="1" source="qpEPyUIO_lfUjYMVJA4N-5" target="qpEPyUIO_lfUjYMVJA4N-4">
          <mxGeometry width="50" height="50" relative="1" as="geometry">
            <mxPoint x="570" y="370" as="sourcePoint" />
            <mxPoint x="440" y="310" as="targetPoint" />
            <Array as="points">
              <mxPoint x="540" y="365" />
              <mxPoint x="540" y="390" />
            </Array>
          </mxGeometry>
        </mxCell>
        <mxCell id="qpEPyUIO_lfUjYMVJA4N-8" value="Group of Root Nodes" style="rounded=0;whiteSpace=wrap;html=1;fillColor=#d5e8d4;strokeColor=#82b366;" vertex="1" parent="1">
          <mxGeometry x="110" y="130" width="170" height="50" as="geometry" />
        </mxCell>
        <mxCell id="qpEPyUIO_lfUjYMVJA4N-9" value="Node Accessing Morello&amp;nbsp;&lt;div&gt;board outside the home network&amp;nbsp;&lt;/div&gt;" style="rounded=0;whiteSpace=wrap;html=1;fillColor=#d5e8d4;strokeColor=#82b366;" vertex="1" parent="1">
          <mxGeometry x="20" y="300" width="150" height="50" as="geometry" />
        </mxCell>
        <mxCell id="qpEPyUIO_lfUjYMVJA4N-11" value="" style="endArrow=classic;startArrow=classic;html=1;rounded=0;exitX=0.46;exitY=-0.02;exitDx=0;exitDy=0;exitPerimeter=0;fillColor=#d5e8d4;strokeColor=#82b366;strokeWidth=2;" edge="1" parent="1" source="qpEPyUIO_lfUjYMVJA4N-9">
          <mxGeometry width="50" height="50" relative="1" as="geometry">
            <mxPoint x="390" y="360" as="sourcePoint" />
            <mxPoint x="110" y="150" as="targetPoint" />
            <Array as="points">
              <mxPoint x="90" y="150" />
            </Array>
          </mxGeometry>
        </mxCell>
        <mxCell id="qpEPyUIO_lfUjYMVJA4N-13" value="" style="endArrow=classic;startArrow=classic;html=1;rounded=0;exitX=0;exitY=0.5;exitDx=0;exitDy=0;entryX=1;entryY=0.5;entryDx=0;entryDy=0;" edge="1" parent="1" source="qpEPyUIO_lfUjYMVJA4N-4" target="qpEPyUIO_lfUjYMVJA4N-8">
          <mxGeometry width="50" height="50" relative="1" as="geometry">
            <mxPoint x="390" y="360" as="sourcePoint" />
            <mxPoint x="260" y="370" as="targetPoint" />
            <Array as="points">
              <mxPoint x="300" y="395" />
              <mxPoint x="300" y="155" />
            </Array>
          </mxGeometry>
        </mxCell>
        <mxCell id="qpEPyUIO_lfUjYMVJA4N-17" value="" style="endArrow=classic;startArrow=classic;html=1;rounded=0;exitX=0;exitY=0.5;exitDx=0;exitDy=0;entryX=1;entryY=0.5;entryDx=0;entryDy=0;fillColor=#d5e8d4;strokeColor=#82b366;strokeWidth=3;" edge="1" parent="1" source="qpEPyUIO_lfUjYMVJA4N-3" target="qpEPyUIO_lfUjYMVJA4N-8">
          <mxGeometry width="50" height="50" relative="1" as="geometry">
            <mxPoint x="390" y="360" as="sourcePoint" />
            <mxPoint x="290" y="150" as="targetPoint" />
            <Array as="points">
              <mxPoint x="300" y="335" />
              <mxPoint x="300" y="155" />
            </Array>
          </mxGeometry>
        </mxCell>
      </root>
    </mxGraphModel>
  </diagram>
</mxfile>
